# xmcd CD database file
# Copyright (C) 1993-1998 Ti Kan
#
# Track frame offsets:
#  183
#  16340
#  33398
#  55575
#  83475
#  117820
#  137510
#  155083
#  171885
#  191755
#  200665
#  214858
#  233108
#  254378
#  269925
#
# Disc length: 3821 seconds
#
# Revision: 1
# Processed by: cddbd v1.4b41PL1 Copyright (c) Steve Scherf et al.
# Submitted via: CDWizzard Release:4.32
#
DISCID=d40eeb0f
DTITLE=Various Artist - Stephane Grappelli: Fine and Dandy
DYEAR=1900
DGENRE=
TTITLE0=Fine and Dandy
TTITLE1=Over The Rainbow
TTITLE2=Manhattan
TTITLE3=Moonlight in Vermont
TTITLE4=I Can't Get Started
TTITLE5=Amanda
TTITLE6=Stardust
TTITLE7=Can't Help Lovin' That Man
TTITLE8=We'll Be Together Again
TTITLE9=Greensleeves
TTITLE10=Tournesol
TTITLE11=Talk Of The Town
TTITLE12=You Go To My Head
TTITLE13=Nature Boy
TTITLE14=The Nearness of You
EXTD=
EXTT0=
EXTT1=
EXTT2=
EXTT3=
EXTT4=
EXTT5=
EXTT6=
EXTT7=
EXTT8=
EXTT9=
EXTT10=
EXTT11=
EXTT12=
EXTT13=
EXTT14=
PLAYORDER=
